<svg id="Group_8833" data-name="Group 8833" xmlns="http://www.w3.org/2000/svg" xmlns:xlink="http://www.w3.org/1999/xlink" width="109.462" height="86.256" viewBox="0 0 109.462 86.256">
  <defs>
    <clipPath id="clip-path">
      <rect id="Rectangle_4506" data-name="Rectangle 4506" width="109.461" height="86.256" fill="none"/>
    </clipPath>
  </defs>
  <path id="Path_5449" data-name="Path 5449" d="M133.378,148.055l-8.137,10.708v3.562l8.208,10.779h7.46l-10.064-12.775,9.7-12.275Z" transform="translate(-73.479 -86.864)" fill="#252328"/>
  <path id="Path_5450" data-name="Path 5450" d="M235.088,148.055l-8.137,10.708v3.562l8.208,10.779h7.456l-10.06-12.775,9.7-12.275Z" transform="translate(-133.153 -86.864)" fill="#252328"/>
  <g id="Group_8832" data-name="Group 8832">
    <g id="Group_8831" data-name="Group 8831" clip-path="url(#clip-path)">
      <path id="Path_5451" data-name="Path 5451" d="M102.974,173.11H96.081l-4.013-7.282-1.194-2.174-1.368-2.48-1.025-1.847h4.7c2.281,0,3.352-1.182,3.352-3.145,0-1.856-1.07-3.067-3.352-3.067h-4.7v-5.071h5.055c6.137,0,9.2,3.534,9.2,7.886a7.292,7.292,0,0,1-5.567,7.245Z" transform="translate(-51.912 -86.858)" fill="#f85606"/>
      <path id="Path_5452" data-name="Path 5452" d="M70,195.728h-6.46l-1.5-4.422H55.25a14.086,14.086,0,0,0,1.686-4.112c.05-.2.1-.413.136-.6H66.7Z" transform="translate(-32.415 -109.475)" fill="#f85606"/>
      <path id="Path_5453" data-name="Path 5453" d="M28.526,148.044H21.454l-.612,1.695-1,2.753-4.063,11.233a5.207,5.207,0,0,1-3.964,3.691,9.359,9.359,0,0,1-2.827.413H6.1V153.272H8.993c3.228,0,5.522,1.327,6.613,3.72l2.3-6.344a13.939,13.939,0,0,0-8.514-2.579H0V173.11H9.766a1.588,1.588,0,0,0,.2,0,11.329,11.329,0,0,0,3.12-.393c.231-.058.446-.124.649-.194a12.876,12.876,0,0,0,6.576-5.435,19.087,19.087,0,0,0,2.124-4.592l1.025-3.195,1-2.988.5-1.5,2.17,6.414h6.162Z" transform="translate(0 -86.858)" fill="#f85606"/>
      <path id="Path_5454" data-name="Path 5454" d="M182.568,161.2H176.41l4.761-13.159h7.067l9.059,25.05h-6.39l-6.171-18.3Z" transform="translate(-103.5 -86.858)" fill="#252328"/>
      <path id="Path_5455" data-name="Path 5455" d="M169.3,186.554h9.485l1.6,4.712H173.95l-1.5,4.422H165.99Z" transform="translate(-97.387 -109.452)" fill="#252328"/>
      <path id="Path_5456" data-name="Path 5456" d="M123.108,49.825l-2.736-20.251a7.15,7.15,0,0,0-7.084-6.2H88.718a7.134,7.134,0,0,0-7.08,6.2L78.9,49.825a3.005,3.005,0,0,0,2.976,3.4h38.255a3,3,0,0,0,2.976-3.4M96.484,36.55c1.042-.794,2.893-.529,4.546.587,1.653-1.116,3.5-1.38,4.546-.587.963.727,1.12,2.281,1.24,3.463a9.115,9.115,0,0,1,0,1.827H95.244a9.433,9.433,0,0,1,0-1.827c.116-1.182.273-2.736,1.24-3.463M101.03,50.9a5.232,5.232,0,0,1-5.117-4.133h10.229A5.229,5.229,0,0,1,101.03,50.9m0-5.522c-6.9,0-12.5-1.05-12.5-2.339,0-.777,2.029-1.467,5.154-1.893a8.411,8.411,0,0,0,.05.856l.087.864a.583.583,0,0,0,.574.521h13.3a.587.587,0,0,0,.574-.521l.087-.864c.029-.281.041-.562.045-.847,3.1.413,5.125,1.112,5.125,1.885-.021,1.289-5.621,2.339-12.5,2.339" transform="translate(-46.277 -13.714)" fill="#f85606"/>
      <path id="Path_5457" data-name="Path 5457" d="M160.755,110.584l-.029-.223a3.72,3.72,0,0,0-3.67-3.207h-8.6a8.08,8.08,0,0,0-8.08,8.076V118.7h13.267a7.155,7.155,0,0,0,7.109-8.113" transform="translate(-82.362 -62.868)" fill="#f85606"/>
      <path id="Path_5458" data-name="Path 5458" d="M87.359,107.154H78.77a3.719,3.719,0,0,0-3.67,3.22l-.029.219A7.17,7.17,0,0,0,82.18,118.7H95.455V115.23a8.08,8.08,0,0,0-8.084-8.076h-.012" transform="translate(-44.008 -62.868)" fill="#f85606"/>
      <path id="Path_5459" data-name="Path 5459" d="M127.958,12.475C127.131,5.127,123.313-.106,120.105,0c-3.05.087-6.576,5.174-7.142,12.494a1.4,1.4,0,1,0,1.215.074c.537-6.877,3.778-11.287,5.96-11.349,2.327-.062,5.844,4.286,6.613,11.374a1.4,1.4,0,1,0,1.211-.12Z" transform="translate(-65.765 0)" fill="#000002"/>
    </g>
  </g>
</svg>
