<svg xmlns="http://www.w3.org/2000/svg" xmlns:xlink="http://www.w3.org/1999/xlink" width="16" height="16" viewBox="0 0 16 16">
  <defs>
    <clipPath id="clip-path">
      <rect id="Rectangle_3096" data-name="Rectangle 3096" width="16" height="16" transform="translate(0.146 0.146)" fill="#f85606"/>
    </clipPath>
  </defs>
  <g id="Group_6318" data-name="Group 6318" transform="translate(-0.146 -0.146)" clip-path="url(#clip-path)">
    <path id="Path_1922" data-name="Path 1922" d="M1.81,16.293a.89.89,0,0,1-.905-.905v-.905H0V10.862a.874.874,0,0,1,.261-.644.874.874,0,0,1,.644-.261H1.81V3.621A3.487,3.487,0,0,1,2.874,1.064,3.487,3.487,0,0,1,5.431,0,3.487,3.487,0,0,1,7.988,1.064,3.487,3.487,0,0,1,9.052,3.621v9.052a1.809,1.809,0,0,0,3.089,1.279,1.747,1.747,0,0,0,.531-1.279V6.336h-.905a.89.89,0,0,1-.905-.905V1.81h.905V.905a.874.874,0,0,1,.261-.644A.874.874,0,0,1,12.672,0h1.81a.874.874,0,0,1,.644.261.874.874,0,0,1,.261.644V1.81h.905V5.431a.89.89,0,0,1-.905.905h-.905v6.336a3.631,3.631,0,0,1-3.621,3.621,3.631,3.631,0,0,1-3.621-3.621V3.621A1.747,1.747,0,0,0,6.71,2.342a1.805,1.805,0,0,0-2.558,0,1.747,1.747,0,0,0-.531,1.279V9.957h.905a.89.89,0,0,1,.905.905v3.621H4.526v.905a.89.89,0,0,1-.905.905Z" transform="translate(0 0)" fill="#f85606"/>
  </g>
</svg>
