<svg xmlns="http://www.w3.org/2000/svg" xmlns:xlink="http://www.w3.org/1999/xlink" width="18" height="16" viewBox="0 0 18 16">
  <defs>
    <clipPath id="clip-path">
      <rect id="Rectangle_3100" data-name="Rectangle 3100" width="18" height="16" transform="translate(0.388 0.448)" fill="#f85606"/>
    </clipPath>
  </defs>
  <g id="Group_6326" data-name="Group 6326" transform="translate(-0.388 -0.448)" clip-path="url(#clip-path)">
    <path id="Path_1926" data-name="Path 1926" d="M14.845,11.72a3.883,3.883,0,0,1-3.828-3.125H8.692L7.754,7.032h3.262a4.836,4.836,0,0,1,.263-.82,3.353,3.353,0,0,1,.44-.742H6.8L5.86,3.907h6.68l-.859-2.344H8.594V0h3.086a1.49,1.49,0,0,1,.9.284,1.6,1.6,0,0,1,.566.752L14.2,3.907h.645a3.769,3.769,0,0,1,2.764,1.142,3.769,3.769,0,0,1,1.142,2.764,3.9,3.9,0,0,1-3.907,3.907m0-1.563a2.334,2.334,0,0,0,2.344-2.344,2.334,2.334,0,0,0-2.344-2.344h-.059l.762,2.09-1.484.527-.742-2.051a2.289,2.289,0,0,0-.606.8,2.323,2.323,0,0,0-.215.977,2.334,2.334,0,0,0,2.344,2.344M5.469,17.189a2.334,2.334,0,0,1-2.344-2.344H0V13.282H3.731a3.229,3.229,0,0,1,.742-.538,2.053,2.053,0,0,1,1-.244,2.3,2.3,0,0,1,1.738.781H9.376V11.72H0V10.157H1.563V7.813H0V6.25H5.469l2.344,3.907H9.376a1.566,1.566,0,0,1,1.563,1.563v1.563a1.566,1.566,0,0,1-1.563,1.563H7.813a2.334,2.334,0,0,1-2.344,2.344M3.125,10.157H6L4.59,7.813H3.125Zm2.344,5.469a.769.769,0,1,0-.556-.225.754.754,0,0,0,.556.225" transform="translate(0.012 -0.146)" fill="#f85606"/>
  </g>
</svg>
