<svg xmlns="http://www.w3.org/2000/svg" xmlns:xlink="http://www.w3.org/1999/xlink" width="17.349" height="14.894" viewBox="0 0 17.349 14.894">
  <defs>
    <clipPath id="clip-path">
      <rect id="Rectangle_3089" data-name="Rectangle 3089" width="17.349" height="14.894" fill="#f85606"/>
    </clipPath>
  </defs>
  <g id="Group_6304" data-name="Group 6304" clip-path="url(#clip-path)">
    <path id="Path_1915" data-name="Path 1915" d="M3.709,6.578l-.827.455a.81.81,0,0,1-.621.083.761.761,0,0,1-.5-.372L.11,3.848a.81.81,0,0,1-.083-.621A.761.761,0,0,1,.4,2.73L5.157,0H6.605a.409.409,0,0,1,.3.113.409.409,0,0,1,.113.3V.827A1.593,1.593,0,0,0,7.5,2,1.647,1.647,0,0,0,9.842,2,1.591,1.591,0,0,0,10.329.827V.414a.409.409,0,0,1,.113-.3.409.409,0,0,1,.3-.113H12.19l4.758,2.73a.761.761,0,0,1,.372.5.81.81,0,0,1-.083.621l-1.655,2.9a.72.72,0,0,1-.487.362.885.885,0,0,1-.63-.093L13.638,6.6v7.467a.814.814,0,0,1-.827.827H4.537a.813.813,0,0,1-.827-.827ZM5.364,3.806v9.433h6.619V3.806l2.565,1.407.869-1.448L11.859,1.7A3.45,3.45,0,0,1,10.69,3.445a3.114,3.114,0,0,1-2.016.693,3.117,3.117,0,0,1-2.017-.693A3.453,3.453,0,0,1,5.488,1.7L1.93,3.765,2.8,5.213Z" transform="translate(0)" fill="#f85606"/>
  </g>
</svg>
