<svg xmlns="http://www.w3.org/2000/svg" xmlns:xlink="http://www.w3.org/1999/xlink" width="18" height="18" viewBox="0 0 18 18">
  <defs>
    <clipPath id="clip-path">
      <rect id="Rectangle_3097" data-name="Rectangle 3097" width="18" height="18" transform="translate(-0.15 -0.15)" fill="#f85606"/>
    </clipPath>
  </defs>
  <g id="Group_6320" data-name="Group 6320" transform="translate(0.15 0.15)" clip-path="url(#clip-path)">
    <path id="Path_1923" data-name="Path 1923" d="M12.389,17.7a5.288,5.288,0,0,1-5.31-5.31,5.288,5.288,0,0,1,5.31-5.31,5.288,5.288,0,0,1,5.31,5.31,5.288,5.288,0,0,1-5.31,5.31m0-1.77a3.55,3.55,0,0,0,3.54-3.54,3.55,3.55,0,0,0-3.54-3.54,3.55,3.55,0,0,0-3.54,3.54,3.55,3.55,0,0,0,3.54,3.54m-10.62,0a1.708,1.708,0,0,1-1.25-.519A1.708,1.708,0,0,1,0,14.159V7.434A1.844,1.844,0,0,1,.034,7.08a2.037,2.037,0,0,1,.1-.354L1.9,2.655H1.77A.871.871,0,0,1,.885,1.77V.885A.854.854,0,0,1,1.14.255.854.854,0,0,1,1.77,0H7.965a.854.854,0,0,1,.63.255.854.854,0,0,1,.255.63V1.77a.871.871,0,0,1-.885.885H7.832l1.46,3.363q-.421.222-.8.465a5.1,5.1,0,0,0-.708.553L5.929,2.655H3.805L1.77,7.434v6.726H5.531a6.105,6.105,0,0,0,.3.919,4.987,4.987,0,0,0,.454.851Zm10.62-9.735a2.191,2.191,0,0,1-2.212-2.212A2.191,2.191,0,0,1,12.389,1.77V6.195a2.221,2.221,0,0,1,3.783-1.571,2.137,2.137,0,0,1,.642,1.571Z" transform="translate(0)" fill="#f85606"/>
  </g>
</svg>
