<svg xmlns="http://www.w3.org/2000/svg" xmlns:xlink="http://www.w3.org/1999/xlink" width="20" height="14" viewBox="0 0 20 14">
  <defs>
    <clipPath id="clip-path">
      <rect id="Rectangle_3098" data-name="Rectangle 3098" width="20" height="14" transform="translate(-0.375 0)" fill="#f85606"/>
    </clipPath>
  </defs>
  <g id="Group_6322" data-name="Group 6322" transform="translate(0.375)" clip-path="url(#clip-path)">
    <path id="Path_1924" data-name="Path 1924" d="M2.625,2.625A2.533,2.533,0,0,1,3.391.766,2.533,2.533,0,0,1,5.25,0H14a2.533,2.533,0,0,1,1.859.766,2.533,2.533,0,0,1,.766,1.859v1.75A2.614,2.614,0,0,1,19.25,7v4.375A2.614,2.614,0,0,1,16.625,14h-14a2.533,2.533,0,0,1-1.859-.766A2.533,2.533,0,0,1,0,11.375V7A2.533,2.533,0,0,1,.766,5.141a2.533,2.533,0,0,1,1.859-.766Zm1.75,0v2.45a3.013,3.013,0,0,1,.634.853A2.368,2.368,0,0,1,5.25,7V8.75H14V7a2.368,2.368,0,0,1,.241-1.072,3.014,3.014,0,0,1,.634-.853V2.625A.861.861,0,0,0,14,1.75H5.25a.861.861,0,0,0-.875.875M15.75,10.5H3.5V7a.9.9,0,0,0-.066-.339.834.834,0,0,0-.471-.471.9.9,0,0,0-.339-.066A.861.861,0,0,0,1.75,7v4.375a.861.861,0,0,0,.875.875h14a.861.861,0,0,0,.875-.875V7a.861.861,0,0,0-.875-.875.9.9,0,0,0-.339.066.834.834,0,0,0-.471.471A.9.9,0,0,0,15.75,7Z" fill="#f85606"/>
  </g>
</svg>
