<svg xmlns="http://www.w3.org/2000/svg" xmlns:xlink="http://www.w3.org/1999/xlink" width="16" height="18" viewBox="0 0 16 18">
  <defs>
    <clipPath id="clip-path">
      <rect id="Rectangle_3092" data-name="Rectangle 3092" width="16" height="18" transform="translate(-0.293 -0.436)" fill="#f85606"/>
    </clipPath>
  </defs>
  <g id="Group_6310" data-name="Group 6310" transform="translate(0.293 0.436)" clip-path="url(#clip-path)">
    <path id="Path_1918" data-name="Path 1918" d="M3.425,17.127V11.989H2.055A1.981,1.981,0,0,1,.6,11.39,1.981,1.981,0,0,1,0,9.934,2.054,2.054,0,0,1,.343,8.788a2.119,2.119,0,0,1,.9-.781L6.851,5.524V4.967a2.572,2.572,0,0,1-1.242-.932,2.443,2.443,0,0,1-.471-1.466A2.479,2.479,0,0,1,5.887.749,2.479,2.479,0,0,1,7.707,0a2.479,2.479,0,0,1,1.82.749,2.479,2.479,0,0,1,.749,1.82H8.564a.856.856,0,1,0-1.713,0,.842.842,0,0,0,.856.856.842.842,0,0,1,.856.856V5.524l5.609,2.483a2.119,2.119,0,0,1,.9.781,2.054,2.054,0,0,1,.343,1.146,2.047,2.047,0,0,1-2.055,2.055h-1.37v5.138Zm-1.37-6.851h1.37V9.42h8.564v.856h1.37a.315.315,0,0,0,.246-.107.4.4,0,0,0,.1-.278.312.312,0,0,0-.053-.182.354.354,0,0,0-.161-.117L7.707,7.022,1.927,9.591a.354.354,0,0,0-.161.117.312.312,0,0,0-.053.182.4.4,0,0,0,.1.278.315.315,0,0,0,.246.107m3.083,5.138h5.138V11.133H5.138Zm0-4.282h0Z" fill="#f85606"/>
  </g>
</svg>
