<svg xmlns="http://www.w3.org/2000/svg" xmlns:xlink="http://www.w3.org/1999/xlink" width="14" height="15" viewBox="0 0 14 15">
  <defs>
    <clipPath id="clip-path">
      <rect id="Rectangle_3093" data-name="Rectangle 3093" width="14" height="15" transform="translate(-0.441 0.152)" fill="#f85606"/>
    </clipPath>
  </defs>
  <g id="Group_6312" data-name="Group 6312" transform="translate(0.441 -0.152)" clip-path="url(#clip-path)">
    <path id="Path_1919" data-name="Path 1919" d="M0,15.3V8.016l1.148-3.37a1.316,1.316,0,0,1,.547-.737,1.525,1.525,0,0,1,1.148-.237,1.072,1.072,0,0,1,.291.1L6.158,5.1H8.016V6.559H5.83L3.862,5.7l-.947,2.86V15.3ZM4.372,11.66h8.745v1.457H4.372Zm7.652-.729a1.087,1.087,0,1,1,.775-.318,1.054,1.054,0,0,1-.775.318m-4.737,0A1.46,1.46,0,0,1,5.83,9.474V8.745H4.372V7.287H6.559a.717.717,0,0,1,.729.729v.729H8.745V7.287H10.2V9.474a1.46,1.46,0,0,1-1.457,1.457ZM3.644,2.915a1.406,1.406,0,0,1-1.03-.428,1.406,1.406,0,0,1-.428-1.03A1.406,1.406,0,0,1,2.614.428,1.406,1.406,0,0,1,3.644,0a1.406,1.406,0,0,1,1.03.428A1.406,1.406,0,0,1,5.1,1.457a1.406,1.406,0,0,1-.428,1.03,1.406,1.406,0,0,1-1.03.428" transform="translate(0 0)" fill="#f85606"/>
  </g>
</svg>
