<svg xmlns="http://www.w3.org/2000/svg" xmlns:xlink="http://www.w3.org/1999/xlink" width="18" height="18" viewBox="0 0 18 18">
  <defs>
    <clipPath id="clip-path">
      <rect id="Rectangle_3099" data-name="Rectangle 3099" width="18" height="18" transform="translate(-0.155 -0.155)" fill="#f85606"/>
    </clipPath>
  </defs>
  <g id="Group_6324" data-name="Group 6324" transform="translate(0.155 0.155)" clip-path="url(#clip-path)">
    <path id="Path_1925" data-name="Path 1925" d="M1.813,7.961H4.334a5.173,5.173,0,0,0-.509-1.57,5.2,5.2,0,0,0-.951-1.3A8.014,8.014,0,0,0,2.2,6.447a6.758,6.758,0,0,0-.387,1.514m11.543,0h2.521a6.758,6.758,0,0,0-.387-1.514,8.014,8.014,0,0,0-.674-1.36,5.179,5.179,0,0,0-1.46,2.875M2.875,12.6a5.2,5.2,0,0,0,.951-1.3,5.173,5.173,0,0,0,.509-1.57H1.813A6.758,6.758,0,0,0,2.2,11.244a8.014,8.014,0,0,0,.674,1.36m11.941,0a8.014,8.014,0,0,0,.674-1.36,6.758,6.758,0,0,0,.387-1.514H13.357a5.179,5.179,0,0,0,1.46,2.875M6.148,7.961H7.961V1.813a7.758,7.758,0,0,0-2.178.653,6.625,6.625,0,0,0-1.8,1.249A7.564,7.564,0,0,1,5.407,5.628a7.077,7.077,0,0,1,.74,2.333m3.582,0h1.813a7.077,7.077,0,0,1,.74-2.333A7.564,7.564,0,0,1,13.71,3.715a6.625,6.625,0,0,0-1.8-1.249A7.758,7.758,0,0,0,9.73,1.813ZM7.961,15.878V9.73H6.148a7.077,7.077,0,0,1-.74,2.333A7.564,7.564,0,0,1,3.98,13.976a6.625,6.625,0,0,0,1.8,1.249,7.758,7.758,0,0,0,2.178.653m1.769,0a7.758,7.758,0,0,0,2.178-.653,6.625,6.625,0,0,0,1.8-1.249,7.564,7.564,0,0,1-1.427-1.913,7.077,7.077,0,0,1-.74-2.333H9.73Zm-.885,1.813a8.6,8.6,0,0,1-3.45-.7A8.826,8.826,0,0,1,.7,12.3,8.6,8.6,0,0,1,0,8.845,8.6,8.6,0,0,1,.7,5.4,8.826,8.826,0,0,1,5.4.7,8.6,8.6,0,0,1,8.845,0,8.6,8.6,0,0,1,12.3.7a8.826,8.826,0,0,1,4.7,4.7,8.6,8.6,0,0,1,.7,3.45,8.6,8.6,0,0,1-.7,3.45,8.826,8.826,0,0,1-4.7,4.7,8.6,8.6,0,0,1-3.45.7" transform="translate(0 0)" fill="#f85606"/>
  </g>
</svg>
