<svg xmlns="http://www.w3.org/2000/svg" xmlns:xlink="http://www.w3.org/1999/xlink" width="10" height="14" viewBox="0 0 10 14">
  <defs>
    <clipPath id="clip-path">
      <rect id="Rectangle_3091" data-name="Rectangle 3091" width="10" height="14" transform="translate(-0.024 0.108)" fill="#f85606"/>
    </clipPath>
  </defs>
  <g id="Group_6308" data-name="Group 6308" transform="translate(0.024 -0.108)" clip-path="url(#clip-path)">
    <path id="Path_1917" data-name="Path 1917" d="M2.843,5.686H3.909V8.53H2.843Zm1.6.711H5.509V8.53H4.442Zm1.6.711H7.108V8.53H6.042Zm-3.2,7.108-.96-3.234A5.025,5.025,0,0,1,.515,9.294a4.893,4.893,0,0,1,0-4.371A5.025,5.025,0,0,1,1.884,3.234L2.843,0H7.108l.96,3.234A5.025,5.025,0,0,1,9.436,4.922a4.893,4.893,0,0,1,0,4.371,5.025,5.025,0,0,1-1.368,1.688l-.96,3.234Zm2.132-3.554A3.43,3.43,0,0,0,7.49,9.623,3.429,3.429,0,0,0,8.53,7.108,3.429,3.429,0,0,0,7.49,4.593,3.43,3.43,0,0,0,4.976,3.554,3.43,3.43,0,0,0,2.461,4.593,3.429,3.429,0,0,0,1.422,7.108,3.429,3.429,0,0,0,2.461,9.623a3.43,3.43,0,0,0,2.515,1.039M3.625,2.31q.355-.088.684-.142a4.2,4.2,0,0,1,1.333,0q.328.053.684.142l-.284-.888H3.909Zm.284,10.484H6.042l.284-.888a6.423,6.423,0,0,1-.684.134,5.065,5.065,0,0,1-1.333,0,6.423,6.423,0,0,1-.684-.134ZM3.625,1.422h0Zm.284,11.373h0Z" transform="translate(0)" fill="#f85606"/>
  </g>
</svg>
