<svg id="Group_8458" data-name="Group 8458" xmlns="http://www.w3.org/2000/svg" xmlns:xlink="http://www.w3.org/1999/xlink" width="16.64" height="16.192" viewBox="0 0 16.64 16.192">
  <defs>
    <clipPath id="clip-path">
      <rect id="Rectangle_4358" data-name="Rectangle 4358" width="16.64" height="16.192" fill="none"/>
    </clipPath>
  </defs>
  <g id="Group_8457" data-name="Group 8457" clip-path="url(#clip-path)">
    <path id="Path_4151" data-name="Path 4151" d="M15.115,42.243a5.881,5.881,0,0,1-.022.628,7.288,7.288,0,0,1-.65,2.512,6.984,6.984,0,0,1-.493.9A7.527,7.527,0,0,1,7.558,49.8a7.818,7.818,0,0,1-3.229-.718A7.567,7.567,0,0,1,4.194,35.47a6.316,6.316,0,0,0-.538.807c-.022.022-.022.045-.045.067-.09.09-.2.157-.292.247l-.336.336-.067.067a.311.311,0,0,0-.067.09.6.6,0,0,0-.112.135,3.3,3.3,0,0,0-.224.292,6.21,6.21,0,0,0-.785,1.346l-.067.135c-.022.067-.045.112-.067.179,0,.022-.022.067-.022.09-.022.09-.067.179-.09.269a.528.528,0,0,0-.045.179c0,.022-.022.067-.022.09-.022.067-.022.112-.045.179a4.489,4.489,0,0,0-.112.583c0,.045-.022.09-.022.157a.2.2,0,0,1-.022.112.493.493,0,0,1-.022.179V41.5a6.583,6.583,0,0,0,10.451,5.36,6.892,6.892,0,0,0,1.929-2.175c.067-.112.112-.224.179-.336a6.346,6.346,0,0,0,.628-2.6v-.224a5.674,5.674,0,0,0-.022-.628.022.022,0,0,1,.022.022,3.452,3.452,0,0,1,.292.269,3.081,3.081,0,0,1,.292-.449,5.9,5.9,0,0,1,.135.875,5.474,5.474,0,0,1,.022.628" transform="translate(0 -33.609)" fill="#ea2227"/>
    <path id="Path_4152" data-name="Path 4152" d="M35.836,56.462v.224a6.187,6.187,0,0,1-.628,2.6,2.445,2.445,0,0,1-.179.336A6.657,6.657,0,0,1,33.1,61.8a6.556,6.556,0,0,1-3.857,1.256,6.459,6.459,0,0,1-4.171-1.5A6.585,6.585,0,0,1,22.65,56.44v-.493a.494.494,0,0,1,.022-.179.2.2,0,0,1,.022-.112c0-.045.022-.09.022-.157a5.332,5.332,0,0,1,.112-.583c.022-.067.022-.112.045-.179,0-.022.022-.067.022-.09.022-.067.022-.112.045-.179.022-.09.067-.179.09-.269,0-.022.022-.067.022-.09.022-.067.045-.112.067-.179l.067-.135a6.212,6.212,0,0,1,.785-1.346,3.3,3.3,0,0,0,.224-.292c.045-.045.067-.09.112-.135a.31.31,0,0,0,.067-.09l.067-.067.336-.336a2.844,2.844,0,0,1,.292-.247c-.022.022-.022.045-.045.067s-.022.045-.045.09a7.678,7.678,0,0,0-.718,2.669c-.022.269-.045.538-.045.807,0,3.454,2.018,6.257,4.53,6.257H29a4.117,4.117,0,0,0,1.054-.135,4,4,0,0,0,2.938-3.857v-.112a3.957,3.957,0,0,0-1.233-2.781,8.352,8.352,0,0,1,1.5.2,6.7,6.7,0,0,1,2.489,1.256c.022,0,.022.022.045.022.022.269.045.471.045.7" transform="translate(-21.461 -48.591)" fill="#f69220"/>
    <path id="Path_4153" data-name="Path 4153" d="M35.049,56.462v.224a6.384,6.384,0,0,1-.628,2.624,2.448,2.448,0,0,1-.179.336,6.772,6.772,0,0,1-1.951,2.2,6.612,6.612,0,0,1-8.073-.247,6.636,6.636,0,0,1,.022-10.271l.067-.045c-.022.022-.022.045-.045.067s-.022.045-.045.067A6.567,6.567,0,0,0,32.245,61.8a6.657,6.657,0,0,0,1.929-2.175c.067-.112.112-.224.179-.336a6.483,6.483,0,0,0,.628-2.6v-.224a5.881,5.881,0,0,0-.022-.628v-.022c.022,0,.022.022.045.022l.022.022a5.469,5.469,0,0,1,.022.605" transform="translate(-20.651 -48.591)" fill="#f69220"/>
    <path id="Path_4154" data-name="Path 4154" d="M97.232,7.558s-5.382-1.009-7.916,3.678a6.422,6.422,0,0,1,4.306-4.709l-.762-1.435A5.52,5.52,0,0,1,97.12,4.06Z" transform="translate(-84.629 -3.791)" fill="#ea2227"/>
    <path id="Path_4155" data-name="Path 4155" d="M112.821,52s2.153-2.8,7.064-2.086l-.067-1.637a5.943,5.943,0,0,1,3.723,1.368L121.5,52.745a5.984,5.984,0,0,0-4.328-1.682,9.422,9.422,0,0,0-4.351.942" transform="translate(-106.901 -45.748)" fill="#f69220"/>
    <path id="Path_4156" data-name="Path 4156" d="M62.667,8.813S60.2,3.454,65.919,0l1.368,2.512a6.445,6.445,0,0,0-1.906,1.166,8.428,8.428,0,0,0-2.714,5.136" transform="translate(-58.877)" fill="#f69220"/>
    <path id="Path_4157" data-name="Path 4157" d="M126.076,125.919s-.471.112-.449-.135c0-.09.045-.112.09-.09,0-.045-.09-.157.112-.224a2.2,2.2,0,0,0,.157-.224c.022-.067.067-.135.247-.112a.882.882,0,0,1,.4.269c.112,0,.224.022.179.045s-.067.067-.045.067c0,0,.067.045-.112.045,0,.045.045.045.067.067a.031.031,0,0,1,0,.045s.022.09-.067.067c-.09-.045-.09-.067-.135-.067-.022,0-.09.022-.09.045s.112.09-.022.112c-.022.022.045.045,0,.067a2.218,2.218,0,0,1-.336.2c-.09,0-.112-.022-.112-.067s.045-.067.112-.067c.022-.022.022-.045,0-.045" transform="translate(-119.034 -118.564)" fill="#ec1c24"/>
    <path id="Path_4158" data-name="Path 4158" d="M130.974,142.221c-.045,0-.179-.09-.112-.135a4.734,4.734,0,0,1,.449-.269c.067-.022.157.067.067.135a4.12,4.12,0,0,1-.4.269" transform="translate(-123.977 -134.372)" fill="#ec1c24"/>
    <path id="Path_4159" data-name="Path 4159" d="M142.735,139.569c0-.045.045-.247.045-.292s.157-.045.112.112c-.022.179-.157.224-.157.179" transform="translate(-135.245 -131.944)" fill="#ec1c24"/>
    <path id="Path_4160" data-name="Path 4160" d="M141.317,138.1a6.271,6.271,0,0,1,.919,0,1.221,1.221,0,0,1,.292.9c-.067.4-.2.516-.74.561a1.473,1.473,0,0,0-.09-.561c-.045-.09-.247-.292-.336-.292,0,.09-.022.381-.022.381s-.269.022-.314-.045v-.426a3.024,3.024,0,0,0,.269-.269c.045.022.045.157.359.135.022-.045-.336,0-.336-.381" transform="translate(-133.624 -130.836)" fill="#ec1c24"/>
    <path id="Path_4161" data-name="Path 4161" d="M134.257,145.727s-.269.224-.336.269c-.022.067-.067.314.292.314.022-.157.045-.583.045-.583" transform="translate(-126.879 -138.08)" fill="#ec1c24"/>
    <path id="Path_4162" data-name="Path 4162" d="M125.7,148.413c-.09,0-.157-.022-.135-.09,0-.067.135-.135.2-.112s.2.045.2.336a.683.683,0,0,0,.426.2c.2.022.336-.022.336.045v.4s-.247,0-.875-.449a.343.343,0,0,1-.09-.224c0-.045-.045-.112-.067-.112" transform="translate(-118.969 -140.43)" fill="#ec1c24"/>
    <path id="Path_4163" data-name="Path 4163" d="M119.629,152.991c-.112,0-.4.247-.179.359a.458.458,0,0,0,.112-.112s-.045.135.067.179.067-.067.135-.067c.045.067.045.09.112.09s.067-.179,0-.269a.332.332,0,0,0-.247-.179" transform="translate(-113.103 -144.963)" fill="#ec1c24"/>
    <path id="Path_4164" data-name="Path 4164" d="M148.718,153.846v.785s.269-.09.292-.157c0-.135-.045-.628-.292-.628" transform="translate(-140.914 -145.773)" fill="#ec1c24"/>
    <path id="Path_4165" data-name="Path 4165" d="M136.752,163.675s.314.2.493.292c-.022.045-.157.2-.2.2a1.241,1.241,0,0,1-.292-.493" transform="translate(-129.576 -155.086)" fill="#ec1c24"/>
    <path id="Path_4166" data-name="Path 4166" d="M108.12,169.231h.4v.157h-.381Z" transform="translate(-102.446 -160.35)" fill="#ec1c24"/>
    <path id="Path_4167" data-name="Path 4167" d="M163.737,167.949h-1.772l.292.224h1.48Z" transform="translate(-153.466 -159.135)" fill="#ec1c24"/>
    <path id="Path_4168" data-name="Path 4168" d="M146.488,167.482c.022-.022.224.135.179.157a4.737,4.737,0,0,1-.65.247c-.045-.022-.045-.157.022-.179a1.383,1.383,0,0,0,.449-.224" transform="translate(-138.325 -158.691)" fill="#ec1c24"/>
    <path id="Path_4169" data-name="Path 4169" d="M138.447,171.142c-.067-.045-.426.314-.269.336a3.81,3.81,0,0,1,.628.135c.09-.045.179-.112.157-.157.067,0,.157.09.247.067a3.735,3.735,0,0,0,.538-.4.9.9,0,0,0-.359-.179c-.067,0-.65.336-.942.2" transform="translate(-130.89 -161.97)" fill="#ec1c24"/>
    <path id="Path_4170" data-name="Path 4170" d="M122.376,178.452a3.368,3.368,0,0,0,.605.157c.112-.022.135-.135.2-.135s.09.067.2,0a2.491,2.491,0,0,0,.336-.269c0,.067,0,.269-.4.449s-1.368.449-1.39.583c.045.022.157-.022.247-.067a.444.444,0,0,1,.112.381c-.022.2-.179.561-.179.65v.583c0,.045.09.292-.045.269a1.206,1.206,0,0,0-.247-.022c-.045,0-.135.09-.224.067s-.224-.045-.224-.09.09-.045.179-.067.135-.112.292-.179c0-.112-.045-.875-.045-1.032a1.946,1.946,0,0,1,.022-.628c.022-.135.381-.65.561-.65" transform="translate(-114.998 -168.853)" fill="#ec1c24"/>
    <path id="Path_4171" data-name="Path 4171" d="M151.709,186.616c0,.045.269.74.4.762a13.061,13.061,0,0,1,1.48-.157c.067.09.2.247.2.359a.906.906,0,0,1,0,.247c.045,0,.135-.022.157-.09s0-.359.022-.426c0-.045.135-.336-.045-.314a6.01,6.01,0,0,1-.9-.045,1.774,1.774,0,0,0-.65-.067.493.493,0,0,0-.2.247c-.045,0-.045-.022-.022-.157a1.847,1.847,0,0,0,.157-.65,2.543,2.543,0,0,0-.605.292" transform="translate(-143.748 -176.546)" fill="#ec1c24"/>
    <path id="Path_4172" data-name="Path 4172" d="M122.523,170.13c.022.022.022.09.067.112l-.919-.067s-.112-.067-.067-.09Z" transform="translate(-115.212 -161.16)" fill="#ec1c24"/>
    <path id="Path_4173" data-name="Path 4173" d="M118,165.991h.919a1.247,1.247,0,0,1-.09-.179c-.157,0-.852.022-.852.022s-.09,0-.09.179c-.022.045.067.112.112-.022" transform="translate(-111.695 -157.111)" fill="#ec1c24"/>
    <path id="Path_4174" data-name="Path 4174" d="M81.958,165.932h.179s.067-.022,0-.09-.179-.112-.09-.247c-.09-.022-.224-.045-.2.247h-.09s-.022-.157-.247-.157a3.3,3.3,0,0,0-.74.224,5.729,5.729,0,0,0,.74.157.321.321,0,0,0,.247-.135h.067a.39.39,0,0,0,.067.157v.179a.1.1,0,0,0-.067.135c.022.09.09.09.09.09a.456.456,0,0,1,.112-.022c.045-.045.022-.157-.067-.2v-.135s.067-.045.067-.09-.067-.045-.067-.112" transform="translate(-76.531 -156.894)" fill="#ec1c24"/>
    <path id="Path_4175" data-name="Path 4175" d="M110.315,173.12a.254.254,0,0,0,.09-.134v-.538c0-.134-.224-.224-.247-.224h-.022a.256.256,0,0,1-.135.067.167.167,0,0,1-.157-.067c-.179,0-.269.224-.292.224a3.613,3.613,0,0,0,0,.493.345.345,0,0,0,.09.135c-.045.135-.224.852.022.942v.112h.628v-.135c.224-.09.067-.7.022-.875m-.7-.673c.022-.022.09-.2.224-.2a.2.2,0,0,0,.179.067.335.335,0,0,0,.157-.067c.067.022.2.09.2.179v.538a.12.12,0,0,1-.067.09H110.2v-.224h-.426v.224h-.09a.191.191,0,0,1-.067-.112,1.74,1.74,0,0,1,0-.493m.426,1.48h-.112a.045.045,0,1,1,0-.09h.112a.045.045,0,1,1,0,.09m.224.045-.292-.336-.269.336c-.179-.067-.067-.628,0-.875h.583c.045.247.157.785-.022.875" transform="translate(-103.789 -163.185)" fill="#ec1c24"/>
    <path id="Path_4176" data-name="Path 4176" d="M113.536,190.756a.11.11,0,0,0-.022-.157h-.359c-.112,0-.067.157-.067.157l.224.2a.724.724,0,0,0,.224-.2" transform="translate(-107.145 -180.597)" fill="#ec1c24"/>
    <path id="Path_4177" data-name="Path 4177" d="M119.231,195.434l.224.269s-.022-.314-.022-.4c-.067,0-.2.135-.2.135" transform="translate(-112.974 -185.05)" fill="#ec1c24"/>
    <path id="Path_4178" data-name="Path 4178" d="M112.416,195.3c0,.112-.022.4-.022.4l.224-.269s-.134-.135-.2-.135" transform="translate(-106.496 -185.05)" fill="#ec1c24"/>
    <path id="Path_4179" data-name="Path 4179" d="M114.056,180.86h.045v-.045a.048.048,0,0,0-.045-.045h-.336a.048.048,0,0,0-.045.045v.045h.381Z" transform="translate(-107.71 -171.284)" fill="#ec1c24"/>
    <path id="Path_4180" data-name="Path 4180" d="M110.728,209.4h-.045v.045a.048.048,0,0,0,.045.045h.65a.048.048,0,0,0,.045-.045V209.4h-.7Z" transform="translate(-104.875 -198.413)" fill="#ec1c24"/>
  </g>
</svg>
