<svg xmlns="http://www.w3.org/2000/svg" xmlns:xlink="http://www.w3.org/1999/xlink" width="208" height="213" viewBox="0 0 208 213">
  <defs>
    <clipPath id="clip-path">
      <rect id="Rectangle_4518" data-name="Rectangle 4518" width="208" height="213" transform="translate(70 192)" fill="#fff"/>
    </clipPath>
  </defs>
  <g id="Group_8878" data-name="Group 8878" transform="translate(-70 -192)" clip-path="url(#clip-path)">
    <path id="Path_5497" data-name="Path 5497" d="M159.368,261.084,157.515,261c.11-2.527,1.22-24.814,6.1-28.879a2.922,2.922,0,0,1,2.3-.72c2.9.4,6.075,5.013,9.695,14.088,2.577,6.461,4.435,12.9,4.453,12.968l-1.782.512c-.019-.063-1.855-6.428-4.4-12.8-4.493-11.258-7.248-12.789-8.224-12.925a1.041,1.041,0,0,0-.856.307C161.2,236.549,159.659,254.442,159.368,261.084Z"/>
    <path id="Path_5498" data-name="Path 5498" d="M143,249.059l-1.855,46.55,61.208-6.6-7.566-44.943Z" fill="#ffba49"/>
    <path id="Path_5499" data-name="Path 5499" d="M194.783,244.068l-4.5.434,5.992,39.41-54.916,6.324-.215,5.373,61.208-6.6Z" fill="#ffa113"/>
    <path id="Path_5500" data-name="Path 5500" d="M227.85,324.113l-2.546-.283c.022-.2,2.136-20.114-4.719-27.56a8.027,8.027,0,0,0-6.464-2.679c-14.932.424-21.953,26.067-22.022,26.326l-2.474-.662a66.121,66.121,0,0,1,5.71-13.764c5.2-9.261,11.673-14.262,18.713-14.462a10.576,10.576,0,0,1,8.422,3.506C230.113,302.841,227.946,323.248,227.85,324.113Z" fill="#ffba49"/>
    <path id="Path_5501" data-name="Path 5501" d="M182.428,305.85l54.03,6.413L235.62,398,163.5,389.4Z" fill="#db3022"/>
    <path id="Path_5502" data-name="Path 5502" d="M236.458,312.262l-5.351-.635L228.5,390.955l-63.988-6.037L163.5,389.4,235.62,398Z" fill="#d10505"/>
    <path id="Path_5503" data-name="Path 5503" d="M250,339.509c2.461.516,4.805-1.452,5.236-4.4q.688,1.176,1.377,2.355c-.431,2.947-2.777,4.916-5.234,4.4Q250.69,340.685,250,339.509Z" fill="#ffba49"/>
    <path id="Path_5504" data-name="Path 5504" d="M177.332,402.563c2.461.516,4.8-1.453,5.236-4.4q.688,1.175,1.377,2.354c-.43,2.947-2.776,4.917-5.234,4.4Q178.022,403.739,177.332,402.563Z" fill="#9b9b9b"/>
    <path id="Path_5505" data-name="Path 5505" d="M255.494,290.169c1.032,2.724,3.711,3.934,5.987,2.7q-.423,1.347-.847,2.692c-2.276,1.234-4.955.025-5.986-2.7Q255.074,291.515,255.494,290.169Z" fill="#ff5c00"/>
    <path id="Path_5506" data-name="Path 5506" d="M239.571,270.82c.416-2.951-1.244-5.746-3.707-6.243q.977-.834,1.956-1.667c2.462.5,4.122,3.292,3.708,6.242Z" fill="#021193"/>
    <path id="Path_5507" data-name="Path 5507" d="M91.708,258.91c.415-2.951-1.244-5.745-3.708-6.242L89.956,251c2.462.5,4.122,3.292,3.708,6.242Z" fill="#ff5c00"/>
    <path id="Path_5508" data-name="Path 5508" d="M142.094,363.475c.416-2.952-1.244-5.746-3.707-6.243l1.956-1.668c2.462.5,4.122,3.293,3.708,6.243Z" fill="#ff5c00"/>
    <path id="Path_5509" data-name="Path 5509" d="M271.332,252.889c2.444.617,4.841-1.256,5.356-4.186q.657,1.2,1.312,2.41c-.514,2.926-2.913,4.8-5.356,4.186Q271.987,254.095,271.332,252.889Z" fill="#ffba49"/>
    <path id="Path_5510" data-name="Path 5510" d="M75.821,289.141c-.876-2.8-3.481-4.224-5.821-3.173l.994-2.618c2.337-1.049,4.944.371,5.821,3.172Q76.319,287.831,75.821,289.141Z" fill="#ffba49"/>
    <path id="Path_5511" data-name="Path 5511" d="M136.534,323.28c.173,2.984,2.333,5.236,4.824,5.028-.525.725-1.052,1.446-1.576,2.171-2.492.206-4.651-2.047-4.824-5.032Q135.746,324.366,136.534,323.28Z" fill="#db3022"/>
    <path id="Path_5512" data-name="Path 5512" d="M118.929,269.053c2.474-.411,4.2-3.148,3.856-6.112l1.915,1.734c.343,2.965-1.383,5.7-3.857,6.114Q119.888,269.92,118.929,269.053Z" fill="#021193"/>
    <path id="Path_5513" data-name="Path 5513" d="M219.812,232.706c-3.208.106-.9,5.759-4.111,5.867q-.918-.924-1.839-1.849c3.209-.107.9-5.759,4.111-5.868Q218.894,231.78,219.812,232.706Z" fill="#ff5c00"/>
    <path id="Path_5514" data-name="Path 5514" d="M225.642,381.278c-3.123-.886-2.111,5.287-5.235,4.4q-.69-1.178-1.378-2.355c3.123.886,2.11-5.287,5.235-4.4Z" fill="#ffba49"/>
    <path id="Path_5515" data-name="Path 5515" d="M132.78,389.315c-2.205,2.795,2.762,4.842.556,7.634-.8.082-1.594.167-2.39.248,2.205-2.793-2.762-4.838-.556-7.632Q131.585,389.442,132.78,389.315Z" fill="#021193"/>
    <path id="Path_5516" data-name="Path 5516" d="M204.225,196.355c-3.14.8-.023,5.864-3.162,6.661-.694-.475-1.392-.948-2.086-1.424,3.139-.8.021-5.86,3.161-6.659Q203.182,195.647,204.225,196.355Z" fill="#db3022"/>
    <path id="Path_5517" data-name="Path 5517" d="M103.444,213c1.545,3.372,4.693-1.665,6.235,1.706-.179.933-.356,1.87-.536,2.8-1.542-3.372-4.689,1.666-6.233-1.706Q103.178,214.4,103.444,213Z" fill="#9b9b9b"/>
    <path id="Path_5518" data-name="Path 5518" d="M76.815,345.583a1.8,1.8,0,0,0,0-3.539"/>
    <path id="Path_5519" data-name="Path 5519" d="M244.448,208.866a2.981,2.981,0,1,1,2.448-2.933A2.727,2.727,0,0,1,244.448,208.866Zm0-4.7a1.646,1.646,0,0,0-1.477,1.77,1.5,1.5,0,1,0,2.954,0,1.646,1.646,0,0,0-1.477-1.77Z"/>
    <path id="Path_5520" data-name="Path 5520" d="M101.947,319.983a2.981,2.981,0,1,1,2.448-2.933A2.726,2.726,0,0,1,101.947,319.983Zm0-4.7a1.794,1.794,0,1,0,1.06.616A1.8,1.8,0,0,0,101.947,315.281Z"/>
  </g>
</svg>
